# xmcd
#
# Track frame offsets: 
#        150
#        18169
#        31440
#        48437
#        66263
#        85620
#        102135
#        121770
#        139770
#
# Disc length: 2186 seconds
#
# Revision: 5
# Processed by: cddbd v1.5.2PL0 Copyright (c) Steve Scherf et al.
# Submitted via: ExactAudioCopy v1.1
#
DISCID=6a088809
DTITLE=Albert King - Lovejoy
DYEAR=1971
DGENRE=Blues
TTITLE0=Honky Tonk Women
TTITLE1=Bay Area Blues
TTITLE2=Corina Corina
TTITLE3=She Caught The Katy And Left Me A Mule To Ride
TTITLE4=For The Love Of A Woman
TTITLE5=Lovejoy, Ill.
TTITLE6=Everybody Wants To Go To Heaven
TTITLE7=Going Back To Iuka
TTITLE8=Like A Road Leading Home
EXTD=
EXTT0=
EXTT1=
EXTT2=
EXTT3=
EXTT4=
EXTT5=
EXTT6=
EXTT7=
EXTT8=
PLAYORDER=
